<?xml version="1.0" standalone="no"?>
<!DOCTYPE svg PUBLIC "-//W3C//DTD SVG 20010904//EN"
 "http://www.w3.org/TR/2001/REC-SVG-20010904/DTD/svg10.dtd">
<svg version="1.0" xmlns="http://www.w3.org/2000/svg"
 width="4167.000000pt" height="1500.000000pt" viewBox="0 0 4167.000000 1500.000000"
 preserveAspectRatio="xMidYMid meet">

<g transform="translate(0.000000,1500.000000) scale(0.100000,-0.100000)"
fill="#000000" stroke="none">
<path d="M2321 11846 l-252 -253 82 -77 c544 -512 1200 -817 1979 -923 188
-25 686 -25 875 0 114 16 389 66 453 83 20 6 6 -28 -106 -252 -70 -143 -151
-315 -179 -384 l-51 -125 -89 -12 c-475 -62 -1049 -24 -1543 103 -518 134
-1030 381 -1462 707 -84 63 -199 157 -256 208 -57 52 -125 113 -151 136 l-47
42 -253 -253 -253 -253 133 -123 c815 -746 1758 -1173 2869 -1297 115 -13 242
-17 488 -18 261 0 331 -3 327 -12 -18 -47 -89 -419 -121 -635 l-6 -38 -201 0
c-1090 1 -2123 312 -3041 918 -268 176 -562 411 -782 624 l-111 108 -219 -232
c-120 -128 -227 -242 -237 -255 l-19 -24 67 -70 c323 -342 565 -793 675 -1254
57 -237 73 -385 74 -660 1 -261 -6 -338 -50 -566 -98 -511 -357 -1011 -718
-1387 l-51 -52 252 -252 252 -252 32 29 c67 63 206 226 300 351 307 409 523
893 624 1399 53 266 69 424 69 710 0 312 -29 574 -93 838 -10 42 -16 77 -14
77 3 0 89 -42 192 -94 181 -92 429 -206 523 -241 52 -19 48 -9 70 -185 20
-164 17 -699 -5 -880 -67 -538 -211 -1013 -441 -1455 -186 -357 -384 -636
-680 -960 l-80 -86 253 -252 252 -252 91 95 c261 275 526 632 716 967 76 132
233 459 286 594 181 462 286 904 330 1384 21 224 28 508 18 650 -5 66 -8 122
-6 123 1 2 65 -10 141 -27 193 -42 279 -58 423 -79 l125 -18 3 -80 c5 -126
-17 -559 -38 -743 -112 -983 -470 -1890 -1057 -2677 -120 -161 -262 -329 -421
-499 l-131 -140 251 -252 251 -251 91 83 c331 306 756 537 1192 649 234 60
368 77 641 83 316 7 481 -10 758 -77 453 -109 891 -346 1236 -669 l75 -70 253
253 252 252 -90 86 c-485 462 -1123 775 -1816 891 -230 39 -404 50 -677 44
-267 -5 -404 -20 -663 -72 -93 -19 -171 -33 -172 -31 -1 1 48 103 110 227 62
123 142 294 178 379 l66 155 84 12 c46 6 175 17 286 24 422 26 897 -27 1345
-151 639 -176 1262 -530 1741 -989 l88 -85 250 250 c137 137 248 254 247 260
-4 15 -194 192 -318 296 -911 765 -2062 1169 -3261 1146 -229 -4 -230 -4 -225
16 19 68 89 431 104 536 l18 125 90 0 c154 0 545 -25 725 -45 1205 -138 2334
-668 3192 -1499 l118 -115 250 250 c137 137 249 254 249 259 0 6 -21 31 -46
55 -76 74 -219 254 -308 388 -243 366 -389 769 -447 1227 -7 55 -13 201 -13
325 0 238 10 344 50 553 67 346 203 681 398 982 80 125 239 325 315 400 28 27
51 54 51 60 0 5 -113 123 -251 260 l-250 250 -41 -45 c-119 -131 -199 -226
-273 -325 -566 -753 -810 -1710 -674 -2640 19 -131 63 -357 76 -391 3 -8 -110
43 -253 114 -143 70 -315 151 -384 179 l-125 51 -12 69 c-35 209 -42 670 -13
938 99 930 494 1791 1127 2455 l82 86 -253 253 -253 252 -106 -110 c-701 -733
-1174 -1731 -1301 -2751 -30 -236 -38 -397 -34 -678 2 -219 0 -281 -9 -278
-37 15 -352 79 -502 102 l-173 28 5 320 c5 322 18 479 58 741 62 403 174 819
324 1195 72 183 248 546 350 721 215 371 491 738 774 1031 l135 139 -254 254
-254 254 -71 -68 c-324 -308 -771 -553 -1210 -664 -259 -66 -432 -87 -715 -87
-717 0 -1354 243 -1892 724 l-105 94 -252 -252z"/>
<path d="M18342 11492 c-69 -25 -137 -84 -176 -152 -28 -50 -31 -63 -31 -145
0 -78 4 -98 28 -147 78 -158 274 -223 438 -144 202 95 240 362 74 515 -62 57
-121 82 -208 87 -54 4 -85 0 -125 -14z"/>
<path d="M11864 11429 c-100 -24 -206 -120 -234 -212 -41 -137 25 -288 154
-354 70 -36 192 -44 267 -17 103 37 185 138 204 251 15 91 -44 222 -124 277
-78 54 -182 76 -267 55z"/>
<path d="M12645 11424 c-132 -42 -214 -152 -215 -290 0 -91 24 -150 89 -215
66 -65 124 -89 217 -89 215 0 359 190 300 395 -44 150 -237 248 -391 199z"/>
<path d="M27214 11429 c-98 -23 -206 -120 -233 -209 -16 -53 -14 -138 5 -193
21 -61 84 -132 148 -164 70 -36 192 -44 267 -17 103 37 185 138 204 251 9 55
-16 152 -54 207 -69 100 -215 154 -337 125z"/>
<path d="M27995 11424 c-132 -42 -214 -152 -215 -290 0 -91 24 -150 89 -215
66 -65 124 -89 217 -89 169 0 300 118 312 280 7 98 -17 160 -87 231 -85 84
-209 117 -316 83z"/>
<path d="M23794 11270 c-104 -41 -172 -129 -194 -250 -20 -110 6 -204 76 -273
132 -131 349 -126 473 9 112 122 113 302 4 424 -66 73 -129 103 -228 107 -62
2 -91 -1 -131 -17z"/>
<path d="M21687 11233 c-4 -3 -7 -489 -7 -1080 l0 -1073 -419 0 -418 0 -7 53
c-3 28 -6 214 -6 413 0 198 -3 476 -7 617 l-6 257 -248 0 -248 0 4 -67 c3 -38
7 -339 10 -670 l4 -603 -500 0 c-275 0 -498 3 -495 8 2 4 25 38 50 76 56 86
99 188 128 303 28 114 30 333 5 435 -47 192 -139 349 -284 489 -570 548 -1569
330 -1819 -398 -75 -219 -65 -473 29 -700 22 -54 49 -100 114 -190 l15 -23
-2256 0 -2256 0 -2 773 -3 772 -465 0 c-412 0 -476 -2 -565 -19 -251 -47 -445
-140 -604 -291 -128 -122 -215 -268 -262 -445 -20 -73 -23 -110 -24 -255 0
-144 4 -183 23 -259 43 -169 130 -323 251 -445 154 -153 370 -261 621 -308 91
-17 400 -18 6680 -18 l6585 0 -1 470 c0 391 -3 486 -17 567 -79 455 -321 702
-765 778 -105 18 -164 20 -758 20 l-644 0 0 -244 0 -245 628 -4 c679 -4 659
-2 786 -60 73 -34 165 -122 204 -195 56 -107 64 -149 69 -374 l5 -208 -1316 0
-1316 0 0 1075 0 1075 -243 0 c-134 0 -247 -3 -250 -7z m-3070 -1009 c252 -66
432 -301 433 -564 1 -379 -375 -657 -754 -560 -110 28 -190 74 -271 155 -117
117 -165 234 -165 403 0 174 48 290 170 413 154 156 365 211 587 153z m-6057
-615 l0 -522 -202 5 c-235 6 -312 20 -434 78 -169 81 -261 205 -284 383 -26
211 78 401 274 497 123 61 221 78 454 79 l192 1 0 -521z"/>
<path d="M37715 11228 c-3 -7 -4 -605 -3 -1328 l3 -1315 1825 0 1825 0 -1 450
c0 412 -2 460 -22 570 -71 403 -265 647 -602 754 -173 56 -153 54 -897 58
l-693 4 0 -245 0 -246 598 0 c666 -1 701 -3 828 -64 131 -62 224 -180 259
-328 10 -44 15 -121 15 -255 l0 -193 -1320 0 -1320 0 0 1075 0 1075 -245 0
c-187 0 -247 -3 -250 -12z"/>
<path d="M33080 10723 c-307 -30 -582 -133 -810 -301 -87 -64 -220 -190 -220
-207 0 -7 95 -258 210 -558 116 -300 210 -551 210 -557 0 -7 -616 -10 -2020
-10 l-2020 0 0 771 0 771 -477 -5 c-529 -5 -558 -8 -753 -73 -369 -123 -604
-381 -681 -749 -18 -85 -16 -323 4 -412 66 -292 223 -504 483 -653 88 -50 259
-111 384 -137 80 -16 329 -17 4064 -20 l3978 -3 45 -40 c296 -260 771 -320
1150 -145 416 192 673 643 623 1094 -84 764 -887 1203 -1574 860 -106 -53
-196 -121 -292 -221 -94 -98 -140 -166 -199 -291 -98 -208 -129 -461 -80 -662
8 -33 14 -66 15 -72 0 -10 -122 -13 -580 -13 -319 0 -580 2 -580 4 0 3 97 258
216 568 l217 563 -80 75 c-252 235 -567 378 -928 420 -85 9 -227 11 -305 3z
m331 -509 c162 -28 368 -104 452 -168 17 -13 7 -43 -169 -490 l-187 -476 -282
0 -282 0 -191 469 c-106 258 -192 474 -192 479 0 13 82 65 151 96 213 94 477
128 700 90z m-5491 -602 l0 -519 -183 -6 c-204 -6 -286 3 -400 47 -217 82
-337 251 -337 476 0 137 38 237 122 326 59 63 122 105 207 139 97 40 197 53
404 54 l187 1 0 -518z m8379 373 c99 -24 196 -80 277 -160 276 -275 233 -743
-89 -962 -106 -72 -192 -98 -322 -98 -160 1 -282 53 -401 170 -131 131 -192
295 -182 490 7 110 34 195 94 292 134 215 386 324 623 268z"/>
<path d="M40215 8356 c-22 -7 -54 -20 -71 -29 -47 -24 -120 -111 -138 -164
-21 -60 -20 -157 1 -219 24 -70 110 -155 183 -179 121 -41 261 -12 343 70 106
105 123 249 46 383 -67 119 -230 180 -364 138z"/>
<path d="M20073 8222 c-109 -39 -167 -100 -199 -208 -68 -234 171 -446 414
-368 212 69 283 337 130 493 -87 89 -232 123 -345 83z"/>
<path d="M20866 8216 c-161 -68 -236 -249 -167 -404 33 -73 115 -147 189 -168
150 -44 321 33 385 174 31 67 30 171 -1 234 -75 152 -259 226 -406 164z"/>
<path d="M19073 6796 c-150 -49 -237 -164 -236 -313 1 -179 137 -313 317 -313
95 0 156 22 220 81 92 84 125 220 82 347 -23 69 -99 152 -166 181 -64 28 -161
35 -217 17z"/>
<path d="M29031 6789 c-84 -27 -158 -98 -190 -184 -29 -75 -26 -185 7 -257 29
-66 100 -132 170 -158 79 -30 195 -25 268 13 60 30 118 92 147 156 33 71 30
188 -6 263 -39 80 -111 142 -194 168 -81 25 -120 25 -202 -1z"/>
<path d="M36921 6789 c-51 -17 -76 -32 -122 -78 -49 -49 -61 -69 -80 -130 -16
-56 -20 -86 -15 -129 13 -108 75 -200 170 -250 45 -24 62 -27 151 -27 86 0
106 3 145 24 61 32 107 76 138 136 24 45 27 61 27 155 0 120 -13 158 -78 223
-85 85 -218 115 -336 76z"/>
<path d="M20730 6701 c-165 -35 -342 -129 -429 -227 -97 -109 -150 -273 -158
-491 l-6 -143 -231 -2 -231 -3 -3 -202 -2 -203 235 0 235 0 0 -715 0 -715 245
0 245 0 0 715 0 715 285 0 285 0 0 205 0 205 -285 0 -285 0 0 43 c1 128 44
268 98 320 15 14 50 36 77 49 44 20 65 23 186 23 l135 0 35 207 36 208 -31 5
c-173 30 -313 32 -436 6z"/>
<path d="M13800 5345 l0 -1345 250 0 250 0 0 601 0 601 58 57 c102 99 232 151
384 151 188 0 299 -78 354 -250 16 -49 18 -114 22 -607 l3 -553 245 0 244 0 0
548 c0 440 -3 565 -15 640 -30 182 -90 312 -197 427 -153 164 -361 248 -613
248 -166 0 -294 -33 -419 -108 -32 -19 -60 -35 -62 -35 -2 0 -4 218 -4 485 l0
485 -250 0 -250 0 0 -1345z"/>
<path d="M17950 5345 l0 -1345 250 0 250 0 0 1345 0 1345 -250 0 -250 0 0
-1345z"/>
<path d="M11280 5325 l0 -1325 265 0 265 0 2 644 3 644 573 -644 572 -644 327
0 326 0 -20 23 c-1046 1163 -1274 1419 -1271 1426 2 5 232 246 513 537 280
291 538 559 574 597 l64 67 -329 -1 -329 -1 -500 -522 -500 -523 -3 523 -2
524 -265 0 -265 0 0 -1325z"/>
<path d="M23973 5773 c3 -849 4 -881 25 -973 55 -248 143 -414 299 -561 202
-190 463 -282 798 -283 299 0 544 76 755 235 177 134 293 327 351 584 23 99
23 109 26 988 l4 887 -245 0 -245 0 -3 -852 c-4 -840 -4 -854 -26 -931 -31
-113 -66 -171 -157 -263 -121 -122 -226 -168 -415 -180 -177 -12 -347 41 -457
140 -66 59 -135 163 -161 241 -39 116 -42 189 -42 1031 l0 814 -256 0 -255 0
4 -877z"/>
<path d="M38050 6095 l0 -255 -245 0 -245 0 0 -205 0 -205 244 0 245 0 3 -427
c4 -404 5 -432 26 -508 12 -44 37 -111 56 -150 115 -240 364 -374 696 -375
101 0 264 13 296 24 7 3 -1 71 -25 213 l-35 208 -138 -3 c-160 -4 -211 8 -276
63 -74 64 -75 74 -80 543 l-3 412 305 0 306 0 0 205 0 205 -305 0 -305 0 0
255 0 255 -260 0 -260 0 0 -255z"/>
<path d="M16575 5863 c-92 -7 -237 -38 -334 -69 -95 -31 -223 -92 -235 -113
-4 -6 128 -367 137 -378 1 -1 38 16 82 37 127 62 242 91 376 97 101 5 126 3
185 -16 127 -39 207 -127 221 -240 l6 -50 -59 24 c-78 31 -166 45 -295 45
-448 0 -758 -255 -759 -625 0 -164 60 -306 179 -425 188 -187 473 -246 735
-153 81 29 122 51 184 100 l42 34 0 -65 0 -66 240 0 240 0 0 579 c0 625 -4
689 -54 813 -61 151 -194 304 -321 370 -163 84 -359 119 -570 101z m299 -1063
c38 -6 88 -19 112 -30 l44 -19 0 -87 0 -88 -56 -54 c-160 -155 -432 -175 -522
-39 -36 54 -37 135 -3 191 62 100 240 152 425 126z"/>
<path d="M21960 5864 c-180 -21 -366 -71 -480 -129 -112 -57 -109 -36 -26
-232 41 -95 76 -179 80 -188 5 -13 14 -11 60 15 73 41 203 85 298 100 107 17
260 9 319 -17 98 -44 165 -129 176 -225 5 -45 4 -51 -11 -45 -117 45 -161 52
-331 51 -155 -1 -178 -3 -260 -28 -137 -42 -238 -99 -320 -181 -117 -117 -168
-242 -168 -410 0 -170 59 -311 178 -430 127 -128 280 -187 485 -188 175 -1
319 45 416 135 l44 41 0 -67 0 -66 240 0 241 0 -3 623 c-3 608 -4 624 -26 701
-95 338 -363 527 -766 541 -61 2 -127 1 -146 -1z m292 -1064 c37 -5 83 -17
102 -27 l36 -17 0 -94 0 -93 -48 -47 c-60 -59 -148 -106 -227 -122 -208 -43
-375 91 -310 248 37 87 118 131 285 156 48 7 95 6 162 -4z"/>
<path d="M27545 5860 c-115 -19 -253 -74 -352 -141 -23 -16 -44 -29 -47 -29
-3 0 -6 29 -6 65 l0 65 -230 0 -230 0 0 -920 0 -920 245 0 245 0 0 595 0 596
46 49 c59 63 141 117 224 149 53 20 84 24 171 25 105 1 106 1 191 -41 72 -36
91 -50 116 -90 69 -109 67 -88 70 -715 l3 -568 249 0 250 0 0 523 c0 535 -5
635 -41 777 -84 332 -385 568 -748 585 -53 2 -123 0 -156 -5z"/>
<path d="M32428 5860 c-267 -42 -473 -174 -614 -391 -157 -242 -202 -566 -119
-853 46 -158 115 -277 225 -387 152 -153 354 -244 600 -270 284 -30 595 68
792 250 l69 64 -137 138 -138 138 -39 -35 c-111 -100 -230 -152 -374 -161
-164 -10 -297 33 -397 131 -73 71 -108 143 -130 264 l-5 32 630 0 c590 0 630
1 637 18 14 33 4 216 -16 308 -99 444 -423 742 -826 759 -56 2 -127 0 -158 -5z
m275 -424 c76 -37 142 -103 177 -179 51 -106 85 -97 -350 -97 -298 0 -380 3
-380 13 3 62 79 171 157 223 84 56 151 75 254 71 69 -2 96 -8 142 -31z"/>
<path d="M34595 5859 c-141 -21 -258 -73 -342 -151 l-53 -51 0 92 0 91 -240 0
-240 0 0 -920 0 -920 250 0 250 0 0 583 0 582 45 58 c55 69 159 148 235 177
74 29 178 36 265 17 39 -8 71 -14 73 -12 4 3 60 439 57 443 -5 5 -153 21 -195
20 -25 0 -72 -4 -105 -9z"/>
<path d="M35625 5860 c-172 -28 -308 -93 -414 -198 -88 -88 -125 -155 -148
-271 -27 -130 6 -276 85 -373 82 -102 195 -167 452 -258 96 -35 192 -71 212
-81 148 -75 163 -202 30 -261 -133 -60 -405 -11 -567 103 -31 21 -58 39 -60
39 -4 0 -203 -294 -228 -337 -5 -7 20 -28 65 -57 202 -125 441 -196 663 -196
125 0 206 13 319 51 117 39 196 87 276 168 215 218 194 555 -47 746 -83 66
-211 125 -423 195 -189 62 -262 96 -280 130 -27 51 0 119 63 152 37 20 56 23
162 23 133 0 178 -13 290 -80 32 -20 62 -34 66 -33 4 2 58 81 119 177 129 200
128 183 5 244 -189 95 -463 144 -640 117z"/>
<path d="M18920 4920 l0 -920 250 0 250 0 0 920 0 920 -250 0 -250 0 0 -920z"/>
<path d="M28890 4920 l0 -920 250 0 250 0 -2 918 -3 917 -247 3 -248 2 0 -920z"/>
<path d="M29600 5836 c0 -2 191 -415 425 -917 l424 -914 178 -3 178 -2 412
904 c227 497 416 911 419 920 6 15 -17 16 -256 14 l-263 -3 -251 -552 c-138
-304 -252 -550 -254 -549 -2 2 -112 251 -245 552 l-243 549 -262 3 c-144 1
-262 1 -262 -2z"/>
<path d="M36790 4920 l0 -920 250 0 250 0 -2 918 -3 917 -247 3 -248 2 0 -920z"/>
<path d="M39250 5835 c0 -3 185 -375 411 -827 l411 -823 -237 -530 c-130 -291
-241 -538 -246 -547 -9 -17 6 -18 248 -18 l258 1 625 1366 c344 751 627 1369
628 1374 2 6 -108 8 -260 7 l-263 -3 -245 -539 -245 -539 -267 541 -267 542
-275 0 c-152 0 -276 -2 -276 -5z"/>
</g>
</svg>
